<svg width="60" height="60" viewBox="0 0 60 60" fill="none" xmlns="http://www.w3.org/2000/svg">
<g clip-path="url(#clip0_1:160)">
<path d="M56.3088 52.9281L47.4964 37.6645C47.8129 37.2958 48.2431 37.023 48.7451 36.9046C50.1332 36.5775 51.2843 35.653 51.9031 34.368C52.5219 33.0831 52.527 31.6067 51.9172 30.3176C51.4505 29.3309 51.7172 28.1622 52.5659 27.4758C53.6746 26.5787 54.3106 25.2463 54.3106 23.8202C54.3106 22.3941 53.6746 21.0616 52.5659 20.1647C51.7172 19.4782 51.4505 18.3095 51.9172 17.3228C52.5271 16.0336 52.5219 14.5572 51.9031 13.2723C51.2843 11.9873 50.1332 11.0628 48.745 10.7357C47.6826 10.4854 46.9352 9.54827 46.9276 8.4567C46.9177 7.03057 46.2724 5.70265 45.1574 4.81346C44.0424 3.92427 42.6039 3.59064 41.2116 3.89837C40.1455 4.13367 39.0657 3.61373 38.5852 2.6336C37.9575 1.35302 36.8001 0.436523 35.4096 0.119189C34.0189 -0.198262 32.5785 0.125399 31.4573 1.00674C30.5993 1.68137 29.4006 1.68137 28.5425 1.00674C27.4212 0.125399 25.9808 -0.198028 24.5903 0.119189C23.1998 0.436523 22.0424 1.35302 21.4146 2.6336C20.9342 3.61373 19.8539 4.13402 18.7884 3.89837C17.3958 3.59088 15.9575 3.92427 14.8426 4.81346C13.7276 5.70265 13.0824 7.03057 13.0724 8.4567C13.0648 9.54815 12.3174 10.4854 11.2549 10.7357C9.86676 11.0628 8.71566 11.9873 8.09693 13.2723C7.47808 14.5572 7.47304 16.0336 8.08275 17.3227C8.54949 18.3094 8.28278 19.4781 7.43414 20.1645C6.32534 21.0616 5.68939 22.394 5.68939 23.8201C5.68939 25.2462 6.32534 26.5787 7.43414 27.4756C8.28278 28.1621 8.54949 29.3308 8.08275 30.3175C7.47293 31.6067 7.47808 33.0831 8.09693 34.368C8.71566 35.653 9.86676 36.5775 11.255 36.9046C11.757 37.0228 12.1872 37.2958 12.5037 37.6645L3.6914 52.9281C3.45411 53.3392 3.48821 53.8528 3.77765 54.2288C4.06721 54.6049 4.55493 54.769 5.013 54.6449L11.1507 52.9798L12.7776 59.1278C12.899 59.5867 13.2852 59.9269 13.7557 59.9896C13.8077 59.9965 13.8594 59.9999 13.9109 59.9999C14.3254 59.9999 14.7142 59.7796 14.9253 59.414L22.4448 46.39C23.0403 46.9413 23.7747 47.335 24.5906 47.5212C25.9808 47.8383 27.4215 47.515 28.5428 46.6337C29.4008 45.959 30.5995 45.959 31.4576 46.6337C32.2967 47.2932 33.3143 47.6404 34.3562 47.6404C34.7066 47.6404 35.0599 47.6011 35.4098 47.5212C36.2256 47.335 36.9601 46.9413 37.5555 46.39L45.075 59.414C45.2862 59.7797 45.675 59.9999 46.0895 59.9999C46.1408 59.9999 46.1927 59.9965 46.2446 59.9896C46.7151 59.9269 47.1013 59.5866 47.2227 59.1278L48.8496 52.9798L54.9873 54.6449C55.4454 54.7694 55.9333 54.6049 56.2227 54.2288C56.5121 53.8528 56.5462 53.3392 56.3088 52.9281ZM14.3165 55.7813L13.1149 51.2404C13.0349 50.9388 12.8382 50.6813 12.568 50.5253C12.2976 50.3693 11.9764 50.3275 11.6753 50.4092L7.14188 51.6391L13.3824 40.8303C13.6777 41.6041 14.1753 42.2945 14.8429 42.827C15.9579 43.7161 17.3963 44.0498 18.7887 43.742C19.5751 43.5684 20.3685 43.807 20.9239 44.3372L14.3165 55.7813ZM34.8882 45.2364C34.1905 45.3954 33.4683 45.2332 32.906 44.7913C32.0505 44.1187 31.0255 43.7825 30.0001 43.7825C28.975 43.7825 27.9495 44.1188 27.0942 44.7913C26.5319 45.2333 25.8097 45.3956 25.112 45.2364C24.4147 45.0772 23.8341 44.6175 23.5193 43.9752C22.5614 42.0211 20.4079 40.9841 18.283 41.4536C17.5845 41.6079 16.8632 41.4406 16.304 40.9946C15.7448 40.5486 15.4212 39.8826 15.4161 39.1673C15.401 36.9911 13.9109 35.1226 11.7926 34.6235C11.0963 34.4594 10.519 33.9957 10.2086 33.3512C9.89828 32.7067 9.8957 31.9664 10.2016 31.3196C11.132 29.3523 10.6002 27.0224 8.90819 25.6537C8.35204 25.2038 8.03318 24.5355 8.03318 23.8202C8.03318 23.1049 8.35216 22.4366 8.90831 21.9867C10.6002 20.618 11.1321 18.2881 10.2016 16.3207C9.8957 15.6741 9.89828 14.9336 10.2087 14.2892C10.519 13.6447 11.0964 13.181 11.7926 13.0169C13.9109 12.5178 15.401 10.6493 15.4161 8.47311C15.4212 7.75782 15.7447 7.09174 16.304 6.64586C16.8632 6.19986 17.5844 6.0324 18.2831 6.18685C20.4078 6.65594 22.5614 5.61933 23.5193 3.66517C23.8341 3.02289 24.4147 2.56317 25.112 2.40404C25.8096 2.24502 26.5319 2.40709 27.0942 2.8491C28.8052 4.19426 31.195 4.19426 32.906 2.8491C33.4684 2.40709 34.1906 2.24502 34.8882 2.40404C35.5856 2.56317 36.1661 3.02289 36.481 3.66517C37.4388 5.61933 39.5922 6.65594 41.7172 6.18685C42.4155 6.03229 43.137 6.19986 43.6962 6.64586C44.2554 7.09186 44.5791 7.75782 44.5841 8.47311C44.5992 10.6493 46.0893 12.5178 48.2077 13.0169C48.904 13.181 49.4812 13.6447 49.7916 14.2892C50.1019 14.9337 50.1045 15.6741 49.7987 16.3208C48.8682 18.2881 49.4 20.618 51.092 21.9867C51.6482 22.4366 51.967 23.1049 51.967 23.8202C51.967 24.5355 51.6481 25.2038 51.0919 25.6537C49.4 27.0224 48.8681 29.3523 49.7987 31.3197C50.1045 31.9664 50.1019 32.7068 49.7915 33.3512C49.4812 33.9957 48.9039 34.4594 48.2077 34.6235C46.0893 35.1226 44.5992 36.9911 44.5841 39.1673C44.5791 39.8826 44.2555 40.5487 43.6962 40.9946C43.137 41.4406 42.4157 41.6078 41.7171 41.4536C39.5922 40.984 37.4388 42.0211 36.481 43.9752C36.1661 44.6175 35.5856 45.0771 34.8882 45.2364ZM48.325 50.4092C48.0237 50.3275 47.7025 50.3694 47.4323 50.5253C47.162 50.6814 46.9652 50.9388 46.8854 51.2404L45.6838 55.7813L39.0765 44.3372C39.6319 43.8068 40.4254 43.5681 41.2116 43.742C42.6043 44.0497 44.0424 43.7161 45.1574 42.827C45.825 42.2946 46.3225 41.6041 46.6178 40.8303L52.8583 51.6391L48.325 50.4092Z" fill="black"/>
<path d="M35.5753 32.682C35.8171 32.682 36.0588 32.6073 36.2642 32.4582C36.6738 32.1605 36.846 31.6333 36.6909 31.1513L34.8438 25.4084L39.715 21.8292C40.1231 21.5294 40.2925 21.0011 40.1347 20.5198C39.9769 20.0386 39.5277 19.7131 39.0213 19.7131H32.9933L31.1136 13.9858C30.9556 13.5046 30.5066 13.1793 30.0002 13.1793C29.4939 13.1793 29.0447 13.5046 28.8869 13.9858L27.0071 19.7131H20.9792C20.4727 19.7131 20.0234 20.0386 19.8657 20.5198C19.7078 21.0011 19.8772 21.5294 20.2854 21.8292L25.1567 25.4084L23.3095 31.1513C23.1545 31.6334 23.3266 32.1605 23.7363 32.4582C24.1461 32.7558 24.7006 32.7565 25.1111 32.4602L30.0004 28.9299L34.8898 32.4602C35.0942 32.608 35.3347 32.682 35.5753 32.682ZM30.686 26.5345C30.4811 26.3866 30.2406 26.3127 30 26.3127C29.7594 26.3127 29.5188 26.3866 29.314 26.5345L26.6335 28.4699L27.6459 25.3225C27.8002 24.8426 27.6304 24.3178 27.2241 24.0193L24.5529 22.0566H27.8556C28.362 22.0566 28.8112 21.7313 28.969 21.2501L30 18.1088L31.031 21.2501C31.1889 21.7313 31.638 22.0566 32.1443 22.0566H35.447L32.7758 24.0193C32.3696 24.3178 32.1998 24.8425 32.3541 25.3225L33.3664 28.4699L30.686 26.5345Z" fill="black"/>
<path d="M46.4057 23.8202C46.4057 14.774 39.0461 7.41443 30 7.41443C20.9539 7.41443 13.5943 14.774 13.5943 23.8202C13.5943 30.702 17.9391 36.9016 24.4059 39.2471C25.0142 39.4676 25.6863 39.1534 25.9071 38.545C26.1278 37.9366 25.8135 37.2645 25.2051 37.0438C19.6621 35.0335 15.938 29.7193 15.938 23.8202C15.938 16.0663 22.2463 9.75811 30.0001 9.75811C37.7539 9.75811 44.0622 16.0663 44.0622 23.8202C44.0622 29.7197 40.3377 35.034 34.7944 37.0441C34.186 37.2648 33.8716 37.9368 34.0923 38.5452C34.2651 39.0217 34.7148 39.318 35.1939 39.318C35.3266 39.318 35.4615 39.2952 35.5934 39.2474C42.0605 36.9022 46.4057 30.7025 46.4057 23.8202Z" fill="black"/>
<path d="M30.0001 37.882C29.6919 37.882 29.3895 38.0074 29.1716 38.2254C28.9536 38.4433 28.8282 38.7457 28.8282 39.0539C28.8282 39.3621 28.9536 39.6644 29.1716 39.8824C29.3895 40.1004 29.6919 40.2258 30.0001 40.2258C30.3083 40.2258 30.6106 40.1004 30.8286 39.8824C31.0466 39.6644 31.172 39.3621 31.172 39.0539C31.172 38.7457 31.0466 38.4433 30.8286 38.2254C30.6106 38.0074 30.3083 37.882 30.0001 37.882Z" fill="black"/>
</g>
<defs>
<clipPath id="clip0_1:160">
<rect width="60" height="60" fill="white"/>
</clipPath>
</defs>
</svg>
