<svg width="60" height="60" viewBox="0 0 60 60" fill="none" xmlns="http://www.w3.org/2000/svg">
<g clip-path="url(#clip0_1:119)">
<path d="M16.3636 28.6364C16.3636 27.8826 15.7537 27.2727 14.9999 27.2727C14.2462 27.2727 13.6363 27.8826 13.6363 28.6364C13.6363 32.2172 17.586 37.1338 18.0362 37.6838C18.3065 38.0115 18.698 38.1819 19.0921 38.1819C19.3958 38.1819 19.7021 38.0806 19.9563 37.8729C20.5383 37.3948 20.6221 36.5359 20.1454 35.9526C18.6834 34.1709 16.3636 30.6099 16.3636 28.6364Z" fill="black"/>
<path d="M45.0001 27.2727C44.2464 27.2727 43.6364 27.8826 43.6364 28.6364C43.6364 30.6032 41.3166 34.1682 39.8545 35.954C39.3778 36.5359 39.4629 37.3949 40.045 37.8729C40.298 38.0806 40.6043 38.1819 40.9092 38.1819C41.3033 38.1819 41.6935 38.0115 41.9639 37.6838C42.414 37.1338 46.3638 32.2173 46.3638 28.6364C46.3638 27.8826 45.7539 27.2727 45.0001 27.2727Z" fill="black"/>
<path d="M30.0001 27.2727C29.2463 27.2727 28.6364 27.8826 28.6364 28.6364V36.8182C28.6364 37.5719 29.2463 38.1819 30.0001 38.1819C30.7538 38.1819 31.3637 37.5719 31.3637 36.8182V28.6364C31.3636 27.8826 30.7537 27.2727 30.0001 27.2727Z" fill="black"/>
<path d="M45 5.45459C44.1737 5.45459 43.3101 5.5639 42.4133 5.73047C39.4099 2.22942 34.964 0 30.0001 0C25.0361 0 20.5901 2.22942 17.5868 5.73034C16.6899 5.5639 15.8263 5.45446 15.0001 5.45446C6.72891 5.45459 0 12.1835 0 20.4546C0 26.1221 3.19602 31.2744 8.21378 33.8219L8.18719 54.4296C8.18591 55.917 8.76376 57.3153 9.81448 58.3673C10.8665 59.4208 12.2634 60 13.751 60H46.2545C49.3227 60 51.8183 57.5044 51.8183 54.4362V33.8019C56.8174 31.2478 60.0001 26.1035 60.0001 20.4546C60 12.1835 53.2711 5.45459 45 5.45459ZM49.0909 54.4364C49.0909 55.9997 47.8179 57.2729 46.2544 57.2729H13.7508C12.9931 57.2729 12.2807 56.9772 11.744 56.4406C11.2086 55.904 10.913 55.1915 10.9143 54.4325L10.9215 49.0909H49.0909V54.4364ZM49.9352 31.6793C49.8632 31.7085 49.7953 31.7432 49.7314 31.7845C49.5596 31.891 49.4185 32.0322 49.3133 32.1946C49.2068 32.3557 49.1348 32.5422 49.1055 32.7419C49.0935 32.8178 49.0895 32.8937 49.0908 32.971V46.3636H10.9249L10.9424 32.9895C10.9437 32.915 10.9397 32.839 10.9291 32.7658C10.8999 32.5593 10.8239 32.3675 10.7133 32.2011C10.6094 32.0453 10.4736 31.9095 10.3085 31.8056C10.2406 31.763 10.1686 31.7257 10.0941 31.695C5.61836 29.7377 2.72723 25.3298 2.72723 20.4546C2.72723 13.6869 8.23245 8.18182 15 8.18182C15.2645 8.18182 15.5437 8.21378 15.8176 8.23539C14.438 10.6332 13.6363 13.404 13.6363 16.3636C13.6363 17.1174 14.2462 17.7273 15 17.7273C15.7537 17.7273 16.3636 17.1174 16.3636 16.3636C16.3636 8.84494 22.4814 2.72723 30.0001 2.72723C37.5188 2.72723 43.6364 8.84494 43.6364 16.3636C43.6364 17.1174 44.2463 17.7273 45 17.7273C45.7538 17.7273 46.3637 17.1174 46.3637 16.3636C46.3637 13.404 45.562 10.6333 44.1824 8.23539C44.4563 8.21378 44.7355 8.18182 45 8.18182C51.7677 8.18182 57.2728 13.687 57.2728 20.4546C57.2728 25.3125 54.3937 29.715 49.9352 31.6793Z" fill="black"/>
</g>
<defs>
<clipPath id="clip0_1:119">
<rect width="60" height="60" fill="white"/>
</clipPath>
</defs>
</svg>
