<svg width="60" height="60" viewBox="0 0 60 60" fill="none" xmlns="http://www.w3.org/2000/svg">
<path d="M54.7266 0H33.5156C32.209 0 30.9732 0.493945 30 1.39582C29.0268 0.493945 27.791 0 26.4844 0H5.27344C2.35875 0 0 2.47219 0 5.39062V54.7266C0 57.6343 2.36566 60 5.27344 60H26.4844C27.834 60 29.0662 59.4898 30 58.6529C30.9338 59.4899 32.166 60 33.5156 60H54.7266C57.6343 60 60 57.6343 60 54.7266V5.39062C60 2.47652 57.645 0 54.7266 0ZM28.2422 7.14844H26.4844C25.5136 7.14844 24.7266 7.93547 24.7266 8.90625C24.7266 9.87703 25.5136 10.6641 26.4844 10.6641H28.2422V49.3359H26.4844C25.5136 49.3359 24.7266 50.123 24.7266 51.0938C24.7266 52.0645 25.5136 52.8516 26.4844 52.8516H28.2422V54.7266C28.2422 55.6958 27.4536 56.4844 26.4844 56.4844H5.27344C4.30418 56.4844 3.51562 55.6958 3.51562 54.7266V5.39062C3.51562 4.39184 4.33699 3.51562 5.27344 3.51562H26.4844C27.4208 3.51562 28.2422 4.39184 28.2422 5.39062V7.14844ZM56.4844 54.7266C56.4844 55.6958 55.6958 56.4844 54.7266 56.4844H33.5156C32.5464 56.4844 31.7578 55.6958 31.7578 54.7266V52.8516H33.5156C34.4864 52.8516 35.2734 52.0645 35.2734 51.0938C35.2734 50.123 34.4864 49.3359 33.5156 49.3359H31.7578V10.6641H33.5156C34.4864 10.6641 35.2734 9.87703 35.2734 8.90625C35.2734 7.93547 34.4864 7.14844 33.5156 7.14844H31.7578V5.39062C31.7578 4.39184 32.5792 3.51562 33.5156 3.51562H54.7266C55.663 3.51562 56.4844 4.39184 56.4844 5.39062V54.7266Z" fill="black"/>
<path d="M24.4016 26.5091C24.4016 26.5009 24.4026 26.4928 24.4026 26.4844C24.4026 24.8707 24.0108 24.0523 21.1207 15.3817C20.8814 14.6638 20.2098 14.1797 19.4531 14.1797H12.4218C11.6651 14.1797 10.9935 14.6638 10.7542 15.3817C7.82808 24.1601 7.4723 24.8561 7.4723 26.4844C7.4723 26.4928 7.47347 26.5009 7.47359 26.5093C7.34843 30.7648 10.0135 34.2553 14.1798 35.0981V42.3047H12.4219C11.4512 42.3047 10.6641 43.0917 10.6641 44.0625C10.6641 45.0333 11.4512 45.8203 12.4219 45.8203H19.4532C20.424 45.8203 21.211 45.0333 21.211 44.0625C21.211 43.0917 20.424 42.3047 19.4532 42.3047H17.6954V35.098C21.8599 34.2557 24.5267 30.768 24.4016 26.5091ZM13.6889 17.6953H18.1862L20.5299 24.7266H11.3451L13.6889 17.6953ZM15.9375 31.7578C13.884 31.7578 11.8061 30.5777 11.17 28.2305H20.7049C20.0752 30.5539 18.0178 31.7578 15.9375 31.7578Z" fill="black"/>
<path d="M47.6953 10.6641H40.5469C37.6391 10.6641 35.2734 13.0297 35.2734 15.9375C35.2734 18.8453 37.6391 21.2109 40.5469 21.2109H47.6953C50.6031 21.2109 52.9688 18.8453 52.9688 15.9375C52.9688 13.0297 50.6031 10.6641 47.6953 10.6641ZM47.6953 17.6953H40.5469C39.5776 17.6953 38.7891 16.9068 38.7891 15.9375C38.7891 14.9682 39.5776 14.1797 40.5469 14.1797H47.6953C48.6646 14.1797 49.4531 14.9682 49.4531 15.9375C49.4531 16.9068 48.6646 17.6953 47.6953 17.6953Z" fill="black"/>
<path d="M51.2109 24.7266H37.0312C36.0605 24.7266 35.2734 25.5136 35.2734 26.4844C35.2734 27.4552 36.0605 28.2422 37.0312 28.2422H51.2109C52.1817 28.2422 52.9688 27.4552 52.9688 26.4844C52.9688 25.5136 52.1817 24.7266 51.2109 24.7266Z" fill="black"/>
<path d="M51.2109 31.7578H37.0312C36.0605 31.7578 35.2734 32.5448 35.2734 33.5156C35.2734 34.4864 36.0605 35.2734 37.0312 35.2734H51.2109C52.1817 35.2734 52.9688 34.4864 52.9688 33.5156C52.9688 32.5448 52.1817 31.7578 51.2109 31.7578Z" fill="black"/>
<path d="M51.2109 45.8203H37.0312C36.0605 45.8203 35.2734 46.6073 35.2734 47.5781C35.2734 48.5489 36.0605 49.3359 37.0312 49.3359H51.2109C52.1817 49.3359 52.9688 48.5489 52.9688 47.5781C52.9688 46.6073 52.1817 45.8203 51.2109 45.8203Z" fill="black"/>
<path d="M51.2109 38.7891H37.0312C36.0605 38.7891 35.2734 39.5761 35.2734 40.5469C35.2734 41.5177 36.0605 42.3047 37.0312 42.3047H51.2109C52.1817 42.3047 52.9688 41.5177 52.9688 40.5469C52.9688 39.5761 52.1817 38.7891 51.2109 38.7891Z" fill="black"/>
</svg>
